<svg width="1000" height="560" xmlns="http://www.w3.org/2000/svg">
<defs><marker id="arrow" markerWidth="10" markerHeight="10" refX="7" refY="3" orient="auto"><path d="M0,0 L0,6 L8,3 z" fill="#222"/></marker></defs>
<rect width="100%" height="100%" fill="white"/>
<text x="45" y="35" font-size="24" font-family="Arial" font-weight="bold">Political / Financial Pattern Map — Evidence Labels Required</text>
<rect x="325" y="20" width="210" height="60" rx="12" fill="#f4f4f4" stroke="#222" stroke-width="2"/>
<text x="345" y="45" font-size="13" font-family="Arial" font-weight="bold">State Legislation</text>
<rect x="325" y="120" width="210" height="60" rx="12" fill="#f4f4f4" stroke="#222" stroke-width="2"/>
<text x="345" y="145" font-size="13" font-family="Arial" font-weight="bold">MUD / MMD Authority</text>
<rect x="55" y="230" width="210" height="60" rx="12" fill="#f4f4f4" stroke="#222" stroke-width="2"/>
<text x="75" y="255" font-size="13" font-family="Arial" font-weight="bold">Developer Infrastructure</text>
<rect x="325" y="230" width="210" height="60" rx="12" fill="#f4f4f4" stroke="#222" stroke-width="2"/>
<text x="345" y="255" font-size="13" font-family="Arial" font-weight="bold">County Approvals</text>
<rect x="595" y="230" width="210" height="60" rx="12" fill="#f4f4f4" stroke="#222" stroke-width="2"/>
<text x="615" y="255" font-size="13" font-family="Arial" font-weight="bold">Public Debt / Taxpayer</text>
<text x="615" y="272" font-size="13" font-family="Arial" font-weight="bold">Burden</text>
<rect x="325" y="340" width="210" height="60" rx="12" fill="#f4f4f4" stroke="#222" stroke-width="2"/>
<text x="345" y="365" font-size="13" font-family="Arial" font-weight="bold">Procurement Vendors</text>
<rect x="325" y="435" width="210" height="60" rx="12" fill="#f4f4f4" stroke="#222" stroke-width="2"/>
<text x="345" y="460" font-size="13" font-family="Arial" font-weight="bold">Missing / Opaque Records</text>
<line x1="430" y1="80" x2="430" y2="120" stroke="#222" stroke-width="2" marker-end="url(#arrow)"/>
<text x="385.0" y="92.0" font-size="11" font-family="Arial">expands/enables</text>
<line x1="430" y1="180" x2="195" y2="235" stroke="#222" stroke-width="2" marker-end="url(#arrow)"/>
<text x="267.5" y="199.5" font-size="11" font-family="Arial">funds/structures</text>
<line x1="430" y1="180" x2="430" y2="230" stroke="#222" stroke-width="2" marker-end="url(#arrow)"/>
<text x="385.0" y="197.0" font-size="11" font-family="Arial">oversight interface</text>
<line x1="430" y1="180" x2="690" y2="235" stroke="#222" stroke-width="2" marker-end="url(#arrow)"/>
<text x="515.0" y="199.5" font-size="11" font-family="Arial">bond/debt pathway</text>
<line x1="430" y1="290" x2="430" y2="340" stroke="#222" stroke-width="2" marker-end="url(#arrow)"/>
<text x="385.0" y="307.0" font-size="11" font-family="Arial">contracts/change orders</text>
<line x1="430" y1="400" x2="430" y2="435" stroke="#222" stroke-width="2" marker-end="url(#arrow)"/>
<text x="385.0" y="409.5" font-size="11" font-family="Arial">bid/support records</text>
<line x1="700" y1="290" x2="520" y2="435" stroke="#222" stroke-width="2" marker-end="url(#arrow)"/>
<text x="565.0" y="354.5" font-size="11" font-family="Arial">burden vs records gap</text>
<line x1="160" y1="290" x2="340" y2="435" stroke="#222" stroke-width="2" marker-end="url(#arrow)"/>
<text x="205.0" y="354.5" font-size="11" font-family="Arial">infrastructure proof gap</text>
<text x="70" y="520" font-size="13" font-family="Arial" font-weight="normal">Legend: this map shows inquiry structure, not final guilt. Upgrade links only after matching recorded documents,</text>
<text x="70" y="537" font-size="13" font-family="Arial" font-weight="normal">public minutes, contracts, audits, and disclosure filings.</text>
</svg>